<?xml version="1.0" encoding="UTF-8" standalone="no"?>
<!DOCTYPE svg PUBLIC "-//W3C//DTD SVG 1.1//EN"
 "http://www.w3.org/Graphics/SVG/1.1/DTD/svg11.dtd">
<!-- Generated by graphviz version 2.38.0 (20140413.2041)
 -->
<!-- Title: %3 Pages: 1 -->
<svg width="445pt" height="2402pt"
 viewBox="0.00 0.00 445.05 2401.76" xmlns="http://www.w3.org/2000/svg" xmlns:xlink="http://www.w3.org/1999/xlink">
<g id="graph0" class="graph" transform="scale(1 1) rotate(0) translate(3.88 2397.9)">
<title>%3</title>
<polygon fill="white" stroke="none" points="-3.88,3.864 -3.88,-2397.9 441.17,-2397.9 441.17,3.864 -3.88,3.864"/>
<!-- Amplitude_coarse -->
<g id="node1" class="node"><title>Amplitude_coarse</title>
<ellipse fill="#2ca02c" stroke="#2ca02c" cx="252.62" cy="-394.33" rx="75" ry="75"/>
<text text-anchor="middle" x="252.62" y="-390.13" font-family="Times,serif" font-size="14.00">Amplitude_coarse</text>
</g>
<!-- frequency_spec -->
<g id="node2" class="node"><title>frequency_spec</title>
<ellipse fill="#2ca02c" stroke="#2ca02c" cx="151.62" cy="-214.83" rx="65.5" ry="65.5"/>
<text text-anchor="middle" x="151.62" y="-210.63" font-family="Times,serif" font-size="14.00">frequency_spec</text>
</g>
<!-- Amplitude_coarse&#45;&gt;frequency_spec -->
<g id="edge1" class="edge"><title>Amplitude_coarse&#45;&gt;frequency_spec</title>
<path fill="none" stroke="black" d="M215.87,-328.75C207.05,-313.25 197.63,-296.69 188.8,-281.17"/>
<polygon fill="black" stroke="black" points="191.659,-279.118 183.67,-272.16 185.576,-282.582 191.659,-279.118"/>
</g>
<!-- mixer_offset -->
<g id="node3" class="node"><title>mixer_offset</title>
<ellipse fill="#2ca02c" stroke="#2ca02c" cx="297.62" cy="-55.136" rx="55" ry="55"/>
<text text-anchor="middle" x="297.62" y="-50.936" font-family="Times,serif" font-size="14.00">mixer_offset</text>
</g>
<!-- Amplitude_coarse&#45;&gt;mixer_offset -->
<g id="edge2" class="edge"><title>Amplitude_coarse&#45;&gt;mixer_offset</title>
<path fill="none" stroke="black" d="M252.67,-319.22C253.86,-269.84 257.7,-203.7 268.62,-146.27 270.46,-136.58 273.04,-126.48 275.89,-116.7"/>
<polygon fill="black" stroke="black" points="279.264,-117.636 278.83,-107.05 272.567,-115.596 279.264,-117.636"/>
</g>
<!-- mixer_skewness -->
<g id="node4" class="node"><title>mixer_skewness</title>
<ellipse fill="#2ca02c" stroke="#2ca02c" cx="346.62" cy="-214.83" rx="68.5" ry="68.5"/>
<text text-anchor="middle" x="346.62" y="-210.63" font-family="Times,serif" font-size="14.00">mixer_skewness</text>
</g>
<!-- Amplitude_coarse&#45;&gt;mixer_skewness -->
<g id="edge3" class="edge"><title>Amplitude_coarse&#45;&gt;mixer_skewness</title>
<path fill="none" stroke="black" d="M287.36,-327.74C294.73,-313.81 302.55,-299.06 309.99,-284.99"/>
<polygon fill="black" stroke="black" points="313.234,-286.344 314.83,-275.87 307.051,-283.062 313.234,-286.344"/>
</g>
<!-- mixer_skewness&#45;&gt;mixer_offset -->
<g id="edge4" class="edge"><title>mixer_skewness&#45;&gt;mixer_offset</title>
<path fill="none" stroke="black" d="M326.55,-149.24C323.34,-138.92 320.03,-128.27 316.85,-118.02"/>
<polygon fill="black" stroke="black" points="320.154,-116.858 313.84,-108.35 313.47,-118.938 320.154,-116.858"/>
</g>
<!-- Amplitude_fine -->
<g id="node5" class="node"><title>Amplitude_fine</title>
<ellipse fill="#2ca02c" stroke="#2ca02c" cx="65.62" cy="-965.49" rx="65.5" ry="65.5"/>
<text text-anchor="middle" x="65.62" y="-961.29" font-family="Times,serif" font-size="14.00">Amplitude_fine</text>
</g>
<!-- Motzoi -->
<g id="node6" class="node"><title>Motzoi</title>
<ellipse fill="#2ca02c" stroke="#2ca02c" cx="119.62" cy="-828.22" rx="35.5" ry="35.5"/>
<text text-anchor="middle" x="119.62" y="-824.02" font-family="Times,serif" font-size="14.00">Motzoi</text>
</g>
<!-- Amplitude_fine&#45;&gt;Motzoi -->
<g id="edge5" class="edge"><title>Amplitude_fine&#45;&gt;Motzoi</title>
<path fill="none" stroke="black" d="M89.62,-904.37C94.106,-893.13 98.703,-881.62 102.91,-871.08"/>
<polygon fill="black" stroke="black" points="106.193,-872.295 106.65,-861.71 99.6922,-869.7 106.193,-872.295"/>
</g>
<!-- Motzoi&#45;&gt;Amplitude_coarse -->
<g id="edge6" class="edge"><title>Motzoi&#45;&gt;Amplitude_coarse</title>
<path fill="none" stroke="black" d="M113.84,-793C107.66,-748.77 101.06,-669.81 119.62,-605.73 135.05,-552.44 168.45,-499.7 197.91,-460.34"/>
<polygon fill="black" stroke="black" points="200.869,-462.231 204.13,-452.15 195.295,-457.997 200.869,-462.231"/>
</g>
<!-- frequency_ramsey -->
<g id="node7" class="node"><title>frequency_ramsey</title>
<ellipse fill="#2ca02c" stroke="#2ca02c" cx="203.62" cy="-681.15" rx="75.5" ry="75.5"/>
<text text-anchor="middle" x="203.62" y="-676.95" font-family="Times,serif" font-size="14.00">frequency_ramsey</text>
</g>
<!-- Motzoi&#45;&gt;frequency_ramsey -->
<g id="edge7" class="edge"><title>Motzoi&#45;&gt;frequency_ramsey</title>
<path fill="none" stroke="black" d="M137.23,-796.81C144.2,-784.76 152.55,-770.35 160.93,-755.88"/>
<polygon fill="black" stroke="black" points="164.159,-757.288 166.14,-746.88 158.101,-753.781 164.159,-757.288"/>
</g>
<!-- frequency_ramsey&#45;&gt;Amplitude_coarse -->
<g id="edge8" class="edge"><title>frequency_ramsey&#45;&gt;Amplitude_coarse</title>
<path fill="none" stroke="black" d="M209.09,-605.73C212.06,-574.53 216.42,-537.98 222.62,-505.27 224.4,-495.89 226.57,-486.15 228.93,-476.5"/>
<polygon fill="black" stroke="black" points="232.398,-477.061 231.44,-466.51 225.609,-475.356 232.398,-477.061"/>
</g>
<!-- frequency_ramsey&#45;&gt;frequency_spec -->
<g id="edge9" class="edge"><title>frequency_ramsey&#45;&gt;frequency_spec</title>
<path fill="none" stroke="black" d="M189.63,-606.71C182.38,-566.3 173.96,-515.17 168.62,-469.27 161.67,-409.44 157.29,-341.31 154.73,-290.76"/>
<polygon fill="black" stroke="black" points="158.216,-290.392 154.22,-280.58 151.225,-290.743 158.216,-290.392"/>
</g>
<!-- SSRO -->
<g id="node8" class="node"><title>SSRO</title>
<ellipse fill="#2ca02c" stroke="#2ca02c" cx="263.62" cy="-537.5" rx="32" ry="32"/>
<text text-anchor="middle" x="263.62" y="-533.3" font-family="Times,serif" font-size="14.00">SSRO</text>
</g>
<!-- frequency_ramsey&#45;&gt;SSRO -->
<g id="edge10" class="edge"><title>frequency_ramsey&#45;&gt;SSRO</title>
<path fill="none" stroke="black" d="M232.74,-611.4C237.77,-599.52 242.83,-587.57 247.36,-576.88"/>
<polygon fill="black" stroke="black" points="250.677,-578.023 251.36,-567.45 244.233,-575.289 250.677,-578.023"/>
</g>
<!-- SSRO&#45;&gt;Amplitude_coarse -->
<g id="edge18" class="edge"><title>SSRO&#45;&gt;Amplitude_coarse</title>
<path fill="none" stroke="black" d="M261.18,-505.17C260.57,-497.3 259.88,-488.47 259.17,-479.33"/>
<polygon fill="black" stroke="black" points="262.656,-479.008 258.39,-469.31 255.677,-479.552 262.656,-479.008"/>
</g>
<!-- Chevron_amp -->
<g id="node9" class="node"><title>Chevron_amp</title>
<ellipse fill="#2ca02c" stroke="#2ca02c" cx="260.62" cy="-1631.8" rx="60" ry="60"/>
<text text-anchor="middle" x="260.62" y="-1627.6" font-family="Times,serif" font-size="14.00">Chevron_amp</text>
</g>
<!-- High_fidelity_single_qubit_gates -->
<g id="node10" class="node"><title>High_fidelity_single_qubit_gates</title>
<ellipse fill="#2ca02c" stroke="#2ca02c" cx="157.62" cy="-1195.1" rx="128" ry="128"/>
<text text-anchor="middle" x="157.62" y="-1190.9" font-family="Times,serif" font-size="14.00">High_fidelity_single_qubit_gates</text>
</g>
<!-- Chevron_amp&#45;&gt;High_fidelity_single_qubit_gates -->
<g id="edge11" class="edge"><title>Chevron_amp&#45;&gt;High_fidelity_single_qubit_gates</title>
<path fill="none" stroke="black" d="M229.9,-1579.8C222.62,-1565.8 215.54,-1550.5 210.62,-1535.6 189.17,-1470.7 176.3,-1395.8 168.63,-1333"/>
<polygon fill="black" stroke="black" points="172.097,-1332.52 167.44,-1323 165.146,-1333.34 172.097,-1332.52"/>
</g>
<!-- High_readout_fidelity -->
<g id="node11" class="node"><title>High_readout_fidelity</title>
<ellipse fill="#2ca02c" stroke="#2ca02c" cx="307.62" cy="-1447.3" rx="88" ry="88"/>
<text text-anchor="middle" x="307.62" y="-1443.1" font-family="Times,serif" font-size="14.00">High_readout_fidelity</text>
</g>
<!-- Chevron_amp&#45;&gt;High_readout_fidelity -->
<g id="edge12" class="edge"><title>Chevron_amp&#45;&gt;High_readout_fidelity</title>
<path fill="none" stroke="black" d="M275.49,-1573.1C277.98,-1563.4 280.61,-1553.2 283.26,-1542.9"/>
<polygon fill="black" stroke="black" points="286.705,-1543.56 285.81,-1533 279.926,-1541.81 286.705,-1543.56"/>
</g>
<!-- High_fidelity_single_qubit_gates&#45;&gt;Amplitude_fine -->
<g id="edge13" class="edge"><title>High_fidelity_single_qubit_gates&#45;&gt;Amplitude_fine</title>
<path fill="none" stroke="black" d="M109.87,-1076C104.36,-1062.3 98.885,-1048.8 93.76,-1036.1"/>
<polygon fill="black" stroke="black" points="96.9109,-1034.56 89.914,-1026.6 90.4224,-1037.18 96.9109,-1034.56"/>
</g>
<!-- High_fidelity_single_qubit_gates&#45;&gt;Motzoi -->
<g id="edge14" class="edge"><title>High_fidelity_single_qubit_gates&#45;&gt;Motzoi</title>
<path fill="none" stroke="black" d="M156.69,-1067C154.64,-1014.9 150.13,-954.18 140.62,-899.87 139.02,-890.71 136.63,-881.05 134.03,-871.92"/>
<polygon fill="black" stroke="black" points="137.363,-870.849 131.16,-862.26 130.653,-872.843 137.363,-870.849"/>
</g>
<!-- High_fidelity_single_qubit_gates&#45;&gt;frequency_ramsey -->
<g id="edge15" class="edge"><title>High_fidelity_single_qubit_gates&#45;&gt;frequency_ramsey</title>
<path fill="none" stroke="black" d="M168.99,-1067.6C177.42,-973.76 188.67,-848.49 196.03,-766.6"/>
<polygon fill="black" stroke="black" points="199.521,-766.853 196.93,-756.58 192.549,-766.227 199.521,-766.853"/>
</g>
<!-- High_readout_fidelity&#45;&gt;SSRO -->
<g id="edge17" class="edge"><title>High_readout_fidelity&#45;&gt;SSRO</title>
<path fill="none" stroke="black" d="M309.37,-1358.8C311.14,-1262.6 313.62,-1103.5 313.62,-966.49 313.62,-966.49 313.62,-966.49 313.62,-827.22 313.62,-728.1 310.2,-702.24 287.62,-605.73 285.42,-596.33 282.34,-586.44 279.12,-577.21"/>
<polygon fill="black" stroke="black" points="282.304,-575.724 275.6,-567.52 275.725,-578.114 282.304,-575.724"/>
</g>
<!-- High_readout_fidelity&#45;&gt;High_fidelity_single_qubit_gates -->
<g id="edge16" class="edge"><title>High_readout_fidelity&#45;&gt;High_fidelity_single_qubit_gates</title>
<path fill="none" stroke="black" d="M262.62,-1371.3C251.79,-1353.2 239.97,-1333.5 228.29,-1314"/>
<polygon fill="black" stroke="black" points="231.268,-1312.16 223.11,-1305.4 225.271,-1315.77 231.268,-1312.16"/>
</g>
<!-- Photon_meter -->
<g id="node12" class="node"><title>Photon_meter</title>
<ellipse fill="#2ca02c" stroke="#2ca02c" cx="260.62" cy="-1958.2" rx="59.5" ry="59.5"/>
<text text-anchor="middle" x="260.62" y="-1954" font-family="Times,serif" font-size="14.00">Photon_meter</text>
</g>
<!-- Trotter_chevron -->
<g id="node13" class="node"><title>Trotter_chevron</title>
<ellipse fill="#2ca02c" stroke="#2ca02c" cx="260.62" cy="-1795.2" rx="67.5" ry="67.5"/>
<text text-anchor="middle" x="260.62" y="-1791" font-family="Times,serif" font-size="14.00">Trotter_chevron</text>
</g>
<!-- Photon_meter&#45;&gt;Trotter_chevron -->
<g id="edge19" class="edge"><title>Photon_meter&#45;&gt;Trotter_chevron</title>
<path fill="none" stroke="black" d="M260.62,-1898.2C260.62,-1889.9 260.62,-1881.2 260.62,-1872.6"/>
<polygon fill="black" stroke="black" points="264.12,-1872.6 260.62,-1862.6 257.12,-1872.6 264.12,-1872.6"/>
</g>
<!-- Trotter_chevron&#45;&gt;Chevron_amp -->
<g id="edge20" class="edge"><title>Trotter_chevron&#45;&gt;Chevron_amp</title>
<path fill="none" stroke="black" d="M260.62,-1727.6C260.62,-1719.2 260.62,-1710.6 260.62,-1702.2"/>
<polygon fill="black" stroke="black" points="264.12,-1702 260.62,-1692 257.12,-1702 264.12,-1702"/>
</g>
<!-- Rabi_simulation -->
<g id="node14" class="node"><title>Rabi_simulation</title>
<ellipse fill="#2ca02c" stroke="#2ca02c" cx="231.62" cy="-2325.4" rx="68.5" ry="68.5"/>
<text text-anchor="middle" x="231.62" y="-2321.2" font-family="Times,serif" font-size="14.00">Rabi_simulation</text>
</g>
<!-- Rabi_simulation&#45;&gt;High_fidelity_single_qubit_gates -->
<g id="edge21" class="edge"><title>Rabi_simulation&#45;&gt;High_fidelity_single_qubit_gates</title>
<path fill="none" stroke="black" d="M197.54,-2265.8C190.36,-2251.5 183.49,-2235.9 178.62,-2220.8 142.48,-2108.9 138.62,-2076.8 138.62,-1959.2 138.62,-1959.2 138.62,-1959.2 138.62,-1630.8 138.62,-1531.1 143.67,-1418.6 148.57,-1333"/>
<polygon fill="black" stroke="black" points="152.065,-1333.19 149.15,-1323 145.077,-1332.78 152.065,-1333.19"/>
</g>
<!-- Rabi_simulation&#45;&gt;High_readout_fidelity -->
<g id="edge22" class="edge"><title>Rabi_simulation&#45;&gt;High_readout_fidelity</title>
<path fill="none" stroke="black" d="M294.15,-2296.9C325.38,-2279.8 360.5,-2254.5 379.62,-2220.8 437.17,-2119.4 398.62,-2075.8 398.62,-1959.2 398.62,-1959.2 398.62,-1959.2 398.62,-1794.2 398.62,-1705.1 370.03,-1607.2 344.9,-1538.4"/>
<polygon fill="black" stroke="black" points="348.136,-1537.06 341.38,-1528.9 341.573,-1539.49 348.136,-1537.06"/>
</g>
<!-- Rabi_simulation&#45;&gt;Photon_meter -->
<g id="edge23" class="edge"><title>Rabi_simulation&#45;&gt;Photon_meter</title>
<path fill="none" stroke="black" d="M206.1,-2261.7C201.75,-2248.4 197.9,-2234.3 195.62,-2220.8 183.27,-2147.7 173.65,-2124.8 195.62,-2053.9 200.13,-2039.4 207.72,-2025.1 216.16,-2012.2"/>
<polygon fill="black" stroke="black" points="219.017,-2014.22 221.8,-2004 213.249,-2010.26 219.017,-2014.22"/>
</g>
<!-- Wigner_tomography -->
<g id="node15" class="node"><title>Wigner_tomography</title>
<ellipse fill="#2ca02c" stroke="#2ca02c" cx="287.62" cy="-2137.4" rx="83.5" ry="83.5"/>
<text text-anchor="middle" x="287.62" y="-2133.2" font-family="Times,serif" font-size="14.00">Wigner_tomography</text>
</g>
<!-- Rabi_simulation&#45;&gt;Wigner_tomography -->
<g id="edge24" class="edge"><title>Rabi_simulation&#45;&gt;Wigner_tomography</title>
<path fill="none" stroke="black" d="M251.13,-2259.6C254.3,-2249 257.64,-2238 260.95,-2227"/>
<polygon fill="black" stroke="black" points="264.339,-2227.88 263.84,-2217.3 257.63,-2225.88 264.339,-2227.88"/>
</g>
<!-- Wigner_tomography&#45;&gt;Photon_meter -->
<g id="edge25" class="edge"><title>Wigner_tomography&#45;&gt;Photon_meter</title>
<path fill="none" stroke="black" d="M275.19,-2054.8C273.79,-2045.6 272.38,-2036.3 271.01,-2027.4"/>
<polygon fill="black" stroke="black" points="274.453,-2026.76 269.49,-2017.4 267.533,-2027.81 274.453,-2026.76"/>
</g>
</g>
</svg>
