<?xml version="1.0" encoding="UTF-8" standalone="no"?>
<!DOCTYPE svg PUBLIC "-//W3C//DTD SVG 1.1//EN"
 "http://www.w3.org/Graphics/SVG/1.1/DTD/svg11.dtd">
<!-- Generated by graphviz version 2.38.0 (20140413.2041)
 -->
<!-- Title: q2 DAG Pages: 1 -->
<svg width="2574pt" height="692pt"
 viewBox="0.00 0.00 2574.16 692.00" xmlns="http://www.w3.org/2000/svg" xmlns:xlink="http://www.w3.org/1999/xlink">
<g id="graph0" class="graph" transform="scale(1 1) rotate(0) translate(4.214 688)">
<title>q2 DAG</title>
<polygon fill="white" stroke="none" points="-4.214,4 -4.214,-688 2569.95,-688 2569.95,4 -4.214,4"/>
<!-- 3 qubit device multiplexed readout -->
<g id="node1" class="node"><title>3 qubit device multiplexed readout</title>
<ellipse fill="#ff7f0e" stroke="#ff7f0e" cx="1316.8" cy="-522" rx="133.5" ry="18"/>
<text text-anchor="middle" x="1316.8" y="-517.8" font-family="Times,serif" font-size="14.00">3 qubit device multiplexed readout</text>
</g>
<!-- q0 optimal weights -->
<g id="node2" class="node"><title>q0 optimal weights</title>
<ellipse fill="#ff7f0e" stroke="#ff7f0e" cx="1059.8" cy="-450" rx="78" ry="18"/>
<text text-anchor="middle" x="1059.8" y="-445.8" font-family="Times,serif" font-size="14.00">q0 optimal weights</text>
</g>
<!-- 3 qubit device multiplexed readout&#45;&gt;q0 optimal weights -->
<g id="edge1" class="edge"><title>3 qubit device multiplexed readout&#45;&gt;q0 optimal weights</title>
<path fill="none" stroke="black" d="M1260.4,-505.64C1218.2,-494.14 1160.6,-478.46 1118,-466.84"/>
<polygon fill="black" stroke="black" points="1118.87,-463.449 1108.3,-464.21 1117.04,-470.205 1118.87,-463.449"/>
</g>
<!-- q1 optimal weights -->
<g id="node3" class="node"><title>q1 optimal weights</title>
<ellipse fill="#ff7f0e" stroke="#ff7f0e" cx="1438.8" cy="-450" rx="78" ry="18"/>
<text text-anchor="middle" x="1438.8" y="-445.8" font-family="Times,serif" font-size="14.00">q1 optimal weights</text>
</g>
<!-- 3 qubit device multiplexed readout&#45;&gt;q1 optimal weights -->
<g id="edge2" class="edge"><title>3 qubit device multiplexed readout&#45;&gt;q1 optimal weights</title>
<path fill="none" stroke="black" d="M1345.7,-504.41C1362.5,-494.77 1383.8,-482.53 1401.8,-472.19"/>
<polygon fill="black" stroke="black" points="1403.95,-474.99 1410.9,-466.99 1400.48,-468.913 1403.95,-474.99"/>
</g>
<!-- q2 optimal weights -->
<g id="node4" class="node"><title>q2 optimal weights</title>
<ellipse fill="#ff7f0e" stroke="#ff7f0e" cx="2152.8" cy="-450" rx="78" ry="18"/>
<text text-anchor="middle" x="2152.8" y="-445.8" font-family="Times,serif" font-size="14.00">q2 optimal weights</text>
</g>
<!-- 3 qubit device multiplexed readout&#45;&gt;q2 optimal weights -->
<g id="edge3" class="edge"><title>3 qubit device multiplexed readout&#45;&gt;q2 optimal weights</title>
<path fill="none" stroke="black" d="M1410.7,-509.18C1426.7,-507.33 1443.2,-505.53 1458.8,-504 1678.3,-482.49 1937.7,-464.7 2068.4,-456.27"/>
<polygon fill="black" stroke="black" points="2068.94,-459.742 2078.7,-455.61 2068.5,-452.757 2068.94,-459.742"/>
</g>
<!-- q0 pulse amplitude med -->
<g id="node5" class="node"><title>q0 pulse amplitude med</title>
<ellipse fill="#ff7f0e" stroke="#ff7f0e" cx="976.79" cy="-378" rx="95" ry="18"/>
<text text-anchor="middle" x="976.79" y="-373.8" font-family="Times,serif" font-size="14.00">q0 pulse amplitude med</text>
</g>
<!-- q0 optimal weights&#45;&gt;q0 pulse amplitude med -->
<g id="edge4" class="edge"><title>q0 optimal weights&#45;&gt;q0 pulse amplitude med</title>
<path fill="none" stroke="black" d="M1040.1,-432.41C1029.4,-423.41 1016.1,-412.14 1004.4,-402.27"/>
<polygon fill="black" stroke="black" points="1006.51,-399.468 996.6,-395.71 1002,-404.825 1006.51,-399.468"/>
</g>
<!-- q1 pulse amplitude med -->
<g id="node6" class="node"><title>q1 pulse amplitude med</title>
<ellipse fill="#ff7f0e" stroke="#ff7f0e" cx="1438.8" cy="-378" rx="95" ry="18"/>
<text text-anchor="middle" x="1438.8" y="-373.8" font-family="Times,serif" font-size="14.00">q1 pulse amplitude med</text>
</g>
<!-- q1 optimal weights&#45;&gt;q1 pulse amplitude med -->
<g id="edge5" class="edge"><title>q1 optimal weights&#45;&gt;q1 pulse amplitude med</title>
<path fill="none" stroke="black" d="M1438.8,-431.7C1438.8,-423.98 1438.8,-414.71 1438.8,-406.11"/>
<polygon fill="black" stroke="black" points="1442.3,-406.1 1438.8,-396.1 1435.3,-406.1 1442.3,-406.1"/>
</g>
<!-- q2 pulse amplitude med -->
<g id="node7" class="node"><title>q2 pulse amplitude med</title>
<ellipse fill="#ff7f0e" stroke="#ff7f0e" cx="2172.8" cy="-378" rx="95" ry="18"/>
<text text-anchor="middle" x="2172.8" y="-373.8" font-family="Times,serif" font-size="14.00">q2 pulse amplitude med</text>
</g>
<!-- q2 optimal weights&#45;&gt;q2 pulse amplitude med -->
<g id="edge6" class="edge"><title>q2 optimal weights&#45;&gt;q2 pulse amplitude med</title>
<path fill="none" stroke="black" d="M2157.7,-431.7C2160,-423.9 2162.6,-414.51 2165.1,-405.83"/>
<polygon fill="black" stroke="black" points="2168.5,-406.678 2167.9,-396.1 2161.77,-404.742 2168.5,-406.678"/>
</g>
<!-- q0 frequency fine -->
<g id="node8" class="node"><title>q0 frequency fine</title>
<ellipse fill="#ff7f0e" stroke="#ff7f0e" cx="883.79" cy="-306" rx="72" ry="18"/>
<text text-anchor="middle" x="883.79" y="-301.8" font-family="Times,serif" font-size="14.00">q0 frequency fine</text>
</g>
<!-- q0 pulse amplitude med&#45;&gt;q0 frequency fine -->
<g id="edge7" class="edge"><title>q0 pulse amplitude med&#45;&gt;q0 frequency fine</title>
<path fill="none" stroke="black" d="M954.75,-360.41C942.38,-351.1 926.79,-339.37 913.37,-329.27"/>
<polygon fill="black" stroke="black" points="915.444,-326.45 905.35,-323.23 911.232,-332.042 915.444,-326.45"/>
</g>
<!-- q1 frequency fine -->
<g id="node9" class="node"><title>q1 frequency fine</title>
<ellipse fill="#ff7f0e" stroke="#ff7f0e" cx="1438.8" cy="-306" rx="72" ry="18"/>
<text text-anchor="middle" x="1438.8" y="-301.8" font-family="Times,serif" font-size="14.00">q1 frequency fine</text>
</g>
<!-- q1 pulse amplitude med&#45;&gt;q1 frequency fine -->
<g id="edge8" class="edge"><title>q1 pulse amplitude med&#45;&gt;q1 frequency fine</title>
<path fill="none" stroke="black" d="M1438.8,-359.7C1438.8,-351.98 1438.8,-342.71 1438.8,-334.11"/>
<polygon fill="black" stroke="black" points="1442.3,-334.1 1438.8,-324.1 1435.3,-334.1 1442.3,-334.1"/>
</g>
<!-- q2 frequency fine -->
<g id="node10" class="node"><title>q2 frequency fine</title>
<ellipse fill="#ff7f0e" stroke="#ff7f0e" cx="2177.8" cy="-306" rx="72" ry="18"/>
<text text-anchor="middle" x="2177.8" y="-301.8" font-family="Times,serif" font-size="14.00">q2 frequency fine</text>
</g>
<!-- q2 pulse amplitude med&#45;&gt;q2 frequency fine -->
<g id="edge9" class="edge"><title>q2 pulse amplitude med&#45;&gt;q2 frequency fine</title>
<path fill="none" stroke="black" d="M2174,-359.7C2174.6,-351.98 2175.2,-342.71 2175.8,-334.11"/>
<polygon fill="black" stroke="black" points="2179.29,-334.347 2176.6,-324.1 2172.31,-333.789 2179.29,-334.347"/>
</g>
<!-- q0 pulse amplitude coarse -->
<g id="node28" class="node"><title>q0 pulse amplitude coarse</title>
<ellipse fill="#ff7f0e" stroke="#ff7f0e" cx="582.79" cy="-234" rx="102.398" ry="18"/>
<text text-anchor="middle" x="582.79" y="-229.8" font-family="Times,serif" font-size="14.00">q0 pulse amplitude coarse</text>
</g>
<!-- q0 frequency fine&#45;&gt;q0 pulse amplitude coarse -->
<g id="edge46" class="edge"><title>q0 frequency fine&#45;&gt;q0 pulse amplitude coarse</title>
<path fill="none" stroke="black" d="M833.07,-293.2C783.3,-281.63 707.05,-263.9 651.79,-251.05"/>
<polygon fill="black" stroke="black" points="652.263,-247.567 641.73,-248.71 650.677,-254.385 652.263,-247.567"/>
</g>
<!-- q1 pulse amplitude coarse -->
<g id="node37" class="node"><title>q1 pulse amplitude coarse</title>
<ellipse fill="#ff7f0e" stroke="#ff7f0e" cx="1295.8" cy="-234" rx="102.398" ry="18"/>
<text text-anchor="middle" x="1295.8" y="-229.8" font-family="Times,serif" font-size="14.00">q1 pulse amplitude coarse</text>
</g>
<!-- q1 frequency fine&#45;&gt;q1 pulse amplitude coarse -->
<g id="edge57" class="edge"><title>q1 frequency fine&#45;&gt;q1 pulse amplitude coarse</title>
<path fill="none" stroke="black" d="M1407.4,-289.64C1387,-279.64 1360.1,-266.47 1337.8,-255.57"/>
<polygon fill="black" stroke="black" points="1339.12,-252.319 1328.6,-251.06 1336.04,-258.604 1339.12,-252.319"/>
</g>
<!-- q2 pulse amplitude coarse -->
<g id="node46" class="node"><title>q2 pulse amplitude coarse</title>
<ellipse fill="#ff7f0e" stroke="#ff7f0e" cx="2040.8" cy="-234" rx="102.398" ry="18"/>
<text text-anchor="middle" x="2040.8" y="-229.8" font-family="Times,serif" font-size="14.00">q2 pulse amplitude coarse</text>
</g>
<!-- q2 frequency fine&#45;&gt;q2 pulse amplitude coarse -->
<g id="edge68" class="edge"><title>q2 frequency fine&#45;&gt;q2 pulse amplitude coarse</title>
<path fill="none" stroke="black" d="M2147.7,-289.64C2128.4,-279.75 2103,-266.78 2081.8,-255.95"/>
<polygon fill="black" stroke="black" points="2083.2,-252.734 2072.7,-251.3 2080.01,-258.967 2083.2,-252.734"/>
</g>
<!-- 3 qubit device resonator frequencies coarse -->
<g id="node11" class="node"><title>3 qubit device resonator frequencies coarse</title>
<ellipse fill="#ff7f0e" stroke="#ff7f0e" cx="1492.8" cy="-18" rx="163.16" ry="18"/>
<text text-anchor="middle" x="1492.8" y="-13.8" font-family="Times,serif" font-size="14.00">3 qubit device resonator frequencies coarse</text>
</g>
<!-- AWG8 Flux&#45;staircase -->
<g id="node12" class="node"><title>AWG8 Flux&#45;staircase</title>
<ellipse fill="#ff7f0e" stroke="#ff7f0e" cx="1631.8" cy="-450" rx="87" ry="18"/>
<text text-anchor="middle" x="1631.8" y="-445.8" font-family="Times,serif" font-size="14.00">AWG8 Flux&#45;staircase</text>
</g>
<!-- AWG8 MW&#45;staircase -->
<g id="node13" class="node"><title>AWG8 MW&#45;staircase</title>
<ellipse fill="#ff7f0e" stroke="#ff7f0e" cx="1093.8" cy="-162" rx="86.5" ry="18"/>
<text text-anchor="middle" x="1093.8" y="-157.8" font-family="Times,serif" font-size="14.00">AWG8 MW&#45;staircase</text>
</g>
<!-- CZ q0&#45;q1 -->
<g id="node14" class="node"><title>CZ q0&#45;q1</title>
<ellipse fill="#ff7f0e" stroke="#ff7f0e" cx="1270.8" cy="-666" rx="44.5" ry="18"/>
<text text-anchor="middle" x="1270.8" y="-661.8" font-family="Times,serif" font-size="14.00">CZ q0&#45;q1</text>
</g>
<!-- Chevron q0&#45;q1 -->
<g id="node15" class="node"><title>Chevron q0&#45;q1</title>
<ellipse fill="#ff7f0e" stroke="#ff7f0e" cx="1270.8" cy="-594" rx="63.5" ry="18"/>
<text text-anchor="middle" x="1270.8" y="-589.8" font-family="Times,serif" font-size="14.00">Chevron q0&#45;q1</text>
</g>
<!-- CZ q0&#45;q1&#45;&gt;Chevron q0&#45;q1 -->
<g id="edge10" class="edge"><title>CZ q0&#45;q1&#45;&gt;Chevron q0&#45;q1</title>
<path fill="none" stroke="black" d="M1270.8,-647.7C1270.8,-639.98 1270.8,-630.71 1270.8,-622.11"/>
<polygon fill="black" stroke="black" points="1274.3,-622.1 1270.8,-612.1 1267.3,-622.1 1274.3,-622.1"/>
</g>
<!-- q0 cryo dist. corr. -->
<g id="node16" class="node"><title>q0 cryo dist. corr.</title>
<ellipse fill="#ff7f0e" stroke="#ff7f0e" cx="1059.8" cy="-594" rx="72.498" ry="18"/>
<text text-anchor="middle" x="1059.8" y="-589.8" font-family="Times,serif" font-size="14.00">q0 cryo dist. corr.</text>
</g>
<!-- CZ q0&#45;q1&#45;&gt;q0 cryo dist. corr. -->
<g id="edge11" class="edge"><title>CZ q0&#45;q1&#45;&gt;q0 cryo dist. corr.</title>
<path fill="none" stroke="black" d="M1237.4,-653.91C1203.4,-642.64 1150.4,-625.05 1111.1,-612.02"/>
<polygon fill="black" stroke="black" points="1111.99,-608.629 1101.4,-608.81 1109.79,-615.275 1111.99,-608.629"/>
</g>
<!-- q1 cryo dist. corr. -->
<g id="node17" class="node"><title>q1 cryo dist. corr.</title>
<ellipse fill="#ff7f0e" stroke="#ff7f0e" cx="1580.8" cy="-594" rx="72.498" ry="18"/>
<text text-anchor="middle" x="1580.8" y="-589.8" font-family="Times,serif" font-size="14.00">q1 cryo dist. corr.</text>
</g>
<!-- CZ q0&#45;q1&#45;&gt;q1 cryo dist. corr. -->
<g id="edge12" class="edge"><title>CZ q0&#45;q1&#45;&gt;q1 cryo dist. corr.</title>
<path fill="none" stroke="black" d="M1308.5,-656.49C1360.9,-644.64 1456.6,-623.05 1519.4,-608.86"/>
<polygon fill="black" stroke="black" points="1520.21,-612.264 1529.2,-606.65 1518.67,-605.436 1520.21,-612.264"/>
</g>
<!-- Chevron q0&#45;q1&#45;&gt;3 qubit device multiplexed readout -->
<g id="edge13" class="edge"><title>Chevron q0&#45;q1&#45;&gt;3 qubit device multiplexed readout</title>
<path fill="none" stroke="black" d="M1281.9,-576.05C1287.3,-567.84 1293.9,-557.79 1299.9,-548.66"/>
<polygon fill="black" stroke="black" points="1302.84,-550.561 1305.4,-540.28 1296.99,-546.72 1302.84,-550.561"/>
</g>
<!-- Chevron q0&#45;q1&#45;&gt;AWG8 Flux&#45;staircase -->
<g id="edge14" class="edge"><title>Chevron q0&#45;q1&#45;&gt;AWG8 Flux&#45;staircase</title>
<path fill="none" stroke="black" d="M1228.1,-580.68C1208.2,-572.55 1186.4,-559.67 1174.8,-540 1166.7,-526.22 1164.1,-515.88 1174.8,-504 1201.1,-474.9 1486.9,-473.11 1525.8,-468 1535.9,-466.68 1546.5,-465.14 1556.9,-463.55"/>
<polygon fill="black" stroke="black" points="1557.46,-467.006 1566.8,-462.01 1556.38,-460.089 1557.46,-467.006"/>
</g>
<!-- q0 gates restless -->
<g id="node18" class="node"><title>q0 gates restless</title>
<ellipse fill="#ff7f0e" stroke="#ff7f0e" cx="1059.8" cy="-522" rx="67.6529" ry="18"/>
<text text-anchor="middle" x="1059.8" y="-517.8" font-family="Times,serif" font-size="14.00">q0 gates restless</text>
</g>
<!-- Chevron q0&#45;q1&#45;&gt;q0 gates restless -->
<g id="edge15" class="edge"><title>Chevron q0&#45;q1&#45;&gt;q0 gates restless</title>
<path fill="none" stroke="black" d="M1231.1,-579.83C1196.8,-568.45 1147,-551.95 1110,-539.65"/>
<polygon fill="black" stroke="black" points="1110.99,-536.292 1100.4,-536.46 1108.79,-542.935 1110.99,-536.292"/>
</g>
<!-- q1 gates restless -->
<g id="node19" class="node"><title>q1 gates restless</title>
<ellipse fill="#ff7f0e" stroke="#ff7f0e" cx="1535.8" cy="-522" rx="67.6529" ry="18"/>
<text text-anchor="middle" x="1535.8" y="-517.8" font-family="Times,serif" font-size="14.00">q1 gates restless</text>
</g>
<!-- Chevron q0&#45;q1&#45;&gt;q1 gates restless -->
<g id="edge16" class="edge"><title>Chevron q0&#45;q1&#45;&gt;q1 gates restless</title>
<path fill="none" stroke="black" d="M1315.4,-581.2C1360.7,-569.25 1430.9,-550.72 1479.8,-537.79"/>
<polygon fill="black" stroke="black" points="1480.83,-541.139 1489.6,-535.2 1479.04,-534.371 1480.83,-541.139"/>
</g>
<!-- q0 cryo dist. corr.&#45;&gt;q0 gates restless -->
<g id="edge17" class="edge"><title>q0 cryo dist. corr.&#45;&gt;q0 gates restless</title>
<path fill="none" stroke="black" d="M1059.8,-575.7C1059.8,-567.98 1059.8,-558.71 1059.8,-550.11"/>
<polygon fill="black" stroke="black" points="1063.3,-550.1 1059.8,-540.1 1056.3,-550.1 1063.3,-550.1"/>
</g>
<!-- q0 room temp. dist. corr. -->
<g id="node20" class="node"><title>q0 room temp. dist. corr.</title>
<ellipse fill="#ff7f0e" stroke="#ff7f0e" cx="876.79" cy="-522" rx="97.5" ry="18"/>
<text text-anchor="middle" x="876.79" y="-517.8" font-family="Times,serif" font-size="14.00">q0 room temp. dist. corr.</text>
</g>
<!-- q0 cryo dist. corr.&#45;&gt;q0 room temp. dist. corr. -->
<g id="edge18" class="edge"><title>q0 cryo dist. corr.&#45;&gt;q0 room temp. dist. corr.</title>
<path fill="none" stroke="black" d="M1021.9,-578.5C994.28,-567.94 956.67,-553.56 926.65,-542.07"/>
<polygon fill="black" stroke="black" points="927.781,-538.755 917.19,-538.46 925.285,-545.295 927.781,-538.755"/>
</g>
<!-- q1 cryo dist. corr.&#45;&gt;q1 gates restless -->
<g id="edge19" class="edge"><title>q1 cryo dist. corr.&#45;&gt;q1 gates restless</title>
<path fill="none" stroke="black" d="M1569.9,-576.05C1564.5,-567.71 1558,-557.49 1552,-548.25"/>
<polygon fill="black" stroke="black" points="1554.93,-546.336 1546.6,-539.79 1549.03,-550.102 1554.93,-546.336"/>
</g>
<!-- q1 room temp. dist. corr. -->
<g id="node21" class="node"><title>q1 room temp. dist. corr.</title>
<ellipse fill="#ff7f0e" stroke="#ff7f0e" cx="1756.8" cy="-522" rx="97.5" ry="18"/>
<text text-anchor="middle" x="1756.8" y="-517.8" font-family="Times,serif" font-size="14.00">q1 room temp. dist. corr.</text>
</g>
<!-- q1 cryo dist. corr.&#45;&gt;q1 room temp. dist. corr. -->
<g id="edge20" class="edge"><title>q1 cryo dist. corr.&#45;&gt;q1 room temp. dist. corr.</title>
<path fill="none" stroke="black" d="M1617.7,-578.33C1644,-567.84 1679.7,-553.64 1708.4,-542.25"/>
<polygon fill="black" stroke="black" points="1709.81,-545.456 1717.8,-538.5 1707.21,-538.955 1709.81,-545.456"/>
</g>
<!-- q0 gates restless&#45;&gt;q0 optimal weights -->
<g id="edge21" class="edge"><title>q0 gates restless&#45;&gt;q0 optimal weights</title>
<path fill="none" stroke="black" d="M1059.8,-503.7C1059.8,-495.98 1059.8,-486.71 1059.8,-478.11"/>
<polygon fill="black" stroke="black" points="1063.3,-478.1 1059.8,-468.1 1056.3,-478.1 1063.3,-478.1"/>
</g>
<!-- q1 gates restless&#45;&gt;q1 optimal weights -->
<g id="edge22" class="edge"><title>q1 gates restless&#45;&gt;q1 optimal weights</title>
<path fill="none" stroke="black" d="M1513.3,-504.76C1500.4,-495.47 1484,-483.66 1469.9,-473.48"/>
<polygon fill="black" stroke="black" points="1471.65,-470.426 1461.5,-467.39 1467.54,-476.093 1471.65,-470.426"/>
</g>
<!-- q0 room temp. dist. corr.&#45;&gt;AWG8 Flux&#45;staircase -->
<g id="edge23" class="edge"><title>q0 room temp. dist. corr.&#45;&gt;AWG8 Flux&#45;staircase</title>
<path fill="none" stroke="black" d="M945.08,-509.09C957.6,-507.18 970.56,-505.38 982.79,-504 1223.1,-476.82 1285.5,-495.18 1525.8,-468 1536.2,-466.83 1547.1,-465.35 1557.8,-463.76"/>
<polygon fill="black" stroke="black" points="1558.64,-467.173 1568,-462.21 1557.59,-460.252 1558.64,-467.173"/>
</g>
<!-- q1 room temp. dist. corr.&#45;&gt;AWG8 Flux&#45;staircase -->
<g id="edge24" class="edge"><title>q1 room temp. dist. corr.&#45;&gt;AWG8 Flux&#45;staircase</title>
<path fill="none" stroke="black" d="M1727.8,-504.76C1710.4,-495.05 1688.2,-482.59 1669.5,-472.11"/>
<polygon fill="black" stroke="black" points="1671.04,-468.961 1660.6,-467.15 1667.63,-475.075 1671.04,-468.961"/>
</g>
<!-- CZ q1&#45;q2 -->
<g id="node22" class="node"><title>CZ q1&#45;q2</title>
<ellipse fill="#ff7f0e" stroke="#ff7f0e" cx="1580.8" cy="-666" rx="44.5" ry="18"/>
<text text-anchor="middle" x="1580.8" y="-661.8" font-family="Times,serif" font-size="14.00">CZ q1&#45;q2</text>
</g>
<!-- CZ q1&#45;q2&#45;&gt;q1 cryo dist. corr. -->
<g id="edge25" class="edge"><title>CZ q1&#45;q2&#45;&gt;q1 cryo dist. corr.</title>
<path fill="none" stroke="black" d="M1580.8,-647.7C1580.8,-639.98 1580.8,-630.71 1580.8,-622.11"/>
<polygon fill="black" stroke="black" points="1584.3,-622.1 1580.8,-612.1 1577.3,-622.1 1584.3,-622.1"/>
</g>
<!-- Chevron q1&#45;q2 -->
<g id="node23" class="node"><title>Chevron q1&#45;q2</title>
<ellipse fill="#ff7f0e" stroke="#ff7f0e" cx="1426.8" cy="-594" rx="63.5" ry="18"/>
<text text-anchor="middle" x="1426.8" y="-589.8" font-family="Times,serif" font-size="14.00">Chevron q1&#45;q2</text>
</g>
<!-- CZ q1&#45;q2&#45;&gt;Chevron q1&#45;q2 -->
<g id="edge26" class="edge"><title>CZ q1&#45;q2&#45;&gt;Chevron q1&#45;q2</title>
<path fill="none" stroke="black" d="M1552.2,-652C1528.6,-641.29 1494.9,-625.97 1468.4,-613.91"/>
<polygon fill="black" stroke="black" points="1469.55,-610.589 1459,-609.63 1466.65,-616.959 1469.55,-610.589"/>
</g>
<!-- q2 cryo dist. corr. -->
<g id="node24" class="node"><title>q2 cryo dist. corr.</title>
<ellipse fill="#ff7f0e" stroke="#ff7f0e" cx="1969.8" cy="-594" rx="72.498" ry="18"/>
<text text-anchor="middle" x="1969.8" y="-589.8" font-family="Times,serif" font-size="14.00">q2 cryo dist. corr.</text>
</g>
<!-- CZ q1&#45;q2&#45;&gt;q2 cryo dist. corr. -->
<g id="edge27" class="edge"><title>CZ q1&#45;q2&#45;&gt;q2 cryo dist. corr.</title>
<path fill="none" stroke="black" d="M1620.6,-657.84C1687.2,-645.86 1821.8,-621.63 1903,-607.01"/>
<polygon fill="black" stroke="black" points="1903.97,-610.392 1913.2,-605.19 1902.74,-603.501 1903.97,-610.392"/>
</g>
<!-- Chevron q1&#45;q2&#45;&gt;3 qubit device multiplexed readout -->
<g id="edge28" class="edge"><title>Chevron q1&#45;q2&#45;&gt;3 qubit device multiplexed readout</title>
<path fill="none" stroke="black" d="M1402.1,-577.29C1387.3,-567.9 1368.4,-555.82 1352.1,-545.44"/>
<polygon fill="black" stroke="black" points="1353.62,-542.263 1343.3,-539.88 1349.88,-548.18 1353.62,-542.263"/>
</g>
<!-- Chevron q1&#45;q2&#45;&gt;AWG8 Flux&#45;staircase -->
<g id="edge29" class="edge"><title>Chevron q1&#45;q2&#45;&gt;AWG8 Flux&#45;staircase</title>
<path fill="none" stroke="black" d="M1474.7,-582.06C1526.5,-569.79 1603.2,-550.27 1612.8,-540 1628.2,-523.54 1632.3,-497.81 1633,-478.23"/>
<polygon fill="black" stroke="black" points="1636.5,-478.09 1633,-468.09 1629.5,-478.09 1636.5,-478.09"/>
</g>
<!-- Chevron q1&#45;q2&#45;&gt;q0 gates restless -->
<g id="edge30" class="edge"><title>Chevron q1&#45;q2&#45;&gt;q0 gates restless</title>
<path fill="none" stroke="black" d="M1377.1,-582.81C1365.8,-580.54 1353.9,-578.16 1342.8,-576 1267.7,-561.37 1181.2,-545.29 1123.8,-534.72"/>
<polygon fill="black" stroke="black" points="1124.27,-531.247 1113.8,-532.88 1123,-538.132 1124.27,-531.247"/>
</g>
<!-- Chevron q1&#45;q2&#45;&gt;q1 gates restless -->
<g id="edge31" class="edge"><title>Chevron q1&#45;q2&#45;&gt;q1 gates restless</title>
<path fill="none" stroke="black" d="M1451.2,-577.29C1466.3,-567.63 1485.8,-555.12 1502.2,-544.55"/>
<polygon fill="black" stroke="black" points="1504.48,-547.248 1511,-538.9 1500.69,-541.358 1504.48,-547.248"/>
</g>
<!-- q2 gates restless -->
<g id="node25" class="node"><title>q2 gates restless</title>
<ellipse fill="#ff7f0e" stroke="#ff7f0e" cx="2152.8" cy="-522" rx="67.6529" ry="18"/>
<text text-anchor="middle" x="2152.8" y="-517.8" font-family="Times,serif" font-size="14.00">q2 gates restless</text>
</g>
<!-- q2 cryo dist. corr.&#45;&gt;q2 gates restless -->
<g id="edge32" class="edge"><title>q2 cryo dist. corr.&#45;&gt;q2 gates restless</title>
<path fill="none" stroke="black" d="M2007.7,-578.5C2036.3,-567.55 2075.8,-552.47 2106.3,-540.79"/>
<polygon fill="black" stroke="black" points="2107.8,-543.963 2115.9,-537.13 2105.31,-537.422 2107.8,-543.963"/>
</g>
<!-- q2 room temp. dist. corr. -->
<g id="node26" class="node"><title>q2 room temp. dist. corr.</title>
<ellipse fill="#ff7f0e" stroke="#ff7f0e" cx="1969.8" cy="-522" rx="97.5" ry="18"/>
<text text-anchor="middle" x="1969.8" y="-517.8" font-family="Times,serif" font-size="14.00">q2 room temp. dist. corr.</text>
</g>
<!-- q2 cryo dist. corr.&#45;&gt;q2 room temp. dist. corr. -->
<g id="edge33" class="edge"><title>q2 cryo dist. corr.&#45;&gt;q2 room temp. dist. corr.</title>
<path fill="none" stroke="black" d="M1969.8,-575.7C1969.8,-567.98 1969.8,-558.71 1969.8,-550.11"/>
<polygon fill="black" stroke="black" points="1973.3,-550.1 1969.8,-540.1 1966.3,-550.1 1973.3,-550.1"/>
</g>
<!-- q2 gates restless&#45;&gt;q2 optimal weights -->
<g id="edge34" class="edge"><title>q2 gates restless&#45;&gt;q2 optimal weights</title>
<path fill="none" stroke="black" d="M2152.8,-503.7C2152.8,-495.98 2152.8,-486.71 2152.8,-478.11"/>
<polygon fill="black" stroke="black" points="2156.3,-478.1 2152.8,-468.1 2149.3,-478.1 2156.3,-478.1"/>
</g>
<!-- q2 room temp. dist. corr.&#45;&gt;AWG8 Flux&#45;staircase -->
<g id="edge35" class="edge"><title>q2 room temp. dist. corr.&#45;&gt;AWG8 Flux&#45;staircase</title>
<path fill="none" stroke="black" d="M1907.4,-508.08C1848.9,-495.95 1761.5,-477.86 1700.8,-465.3"/>
<polygon fill="black" stroke="black" points="1701.5,-461.871 1691,-463.26 1700.08,-468.725 1701.5,-461.871"/>
</g>
<!-- q0 T1 -->
<g id="node27" class="node"><title>q0 T1</title>
<ellipse fill="#ff7f0e" stroke="#ff7f0e" cx="483.79" cy="-306" rx="31" ry="18"/>
<text text-anchor="middle" x="483.79" y="-301.8" font-family="Times,serif" font-size="14.00">q0 T1</text>
</g>
<!-- q0 T1&#45;&gt;q0 pulse amplitude coarse -->
<g id="edge36" class="edge"><title>q0 T1&#45;&gt;q0 pulse amplitude coarse</title>
<path fill="none" stroke="black" d="M502.87,-291.5C516.43,-281.92 534.96,-268.81 550.76,-257.64"/>
<polygon fill="black" stroke="black" points="553.062,-260.299 559.21,-251.67 549.023,-254.582 553.062,-260.299"/>
</g>
<!-- q0 pulse amplitude coarse&#45;&gt;AWG8 MW&#45;staircase -->
<g id="edge37" class="edge"><title>q0 pulse amplitude coarse&#45;&gt;AWG8 MW&#45;staircase</title>
<path fill="none" stroke="black" d="M666.62,-223.58C750.76,-213.82 884,-197.57 998.79,-180 1006.2,-178.86 1014,-177.6 1021.7,-176.3"/>
<polygon fill="black" stroke="black" points="1022.54,-179.707 1031.8,-174.56 1021.35,-172.809 1022.54,-179.707"/>
</g>
<!-- q0 frequency coarse -->
<g id="node29" class="node"><title>q0 frequency coarse</title>
<ellipse fill="#ff7f0e" stroke="#ff7f0e" cx="294.79" cy="-162" rx="81.5" ry="18"/>
<text text-anchor="middle" x="294.79" y="-157.8" font-family="Times,serif" font-size="14.00">q0 frequency coarse</text>
</g>
<!-- q0 pulse amplitude coarse&#45;&gt;q0 frequency coarse -->
<g id="edge38" class="edge"><title>q0 pulse amplitude coarse&#45;&gt;q0 frequency coarse</title>
<path fill="none" stroke="black" d="M525.54,-219.09C476.94,-207.27 407.33,-190.35 357.29,-178.19"/>
<polygon fill="black" stroke="black" points="358.093,-174.783 347.55,-175.83 356.445,-181.587 358.093,-174.783"/>
</g>
<!-- q0 mixer offsets drive -->
<g id="node30" class="node"><title>q0 mixer offsets drive</title>
<ellipse fill="#ff7f0e" stroke="#ff7f0e" cx="481.79" cy="-162" rx="88" ry="18"/>
<text text-anchor="middle" x="481.79" y="-157.8" font-family="Times,serif" font-size="14.00">q0 mixer offsets drive</text>
</g>
<!-- q0 pulse amplitude coarse&#45;&gt;q0 mixer offsets drive -->
<g id="edge39" class="edge"><title>q0 pulse amplitude coarse&#45;&gt;q0 mixer offsets drive</title>
<path fill="none" stroke="black" d="M558.85,-216.41C545.39,-207.08 528.41,-195.32 513.82,-185.2"/>
<polygon fill="black" stroke="black" points="515.763,-182.288 505.55,-179.47 511.776,-188.042 515.763,-182.288"/>
</g>
<!-- q0 mixer offsets readout -->
<g id="node31" class="node"><title>q0 mixer offsets readout</title>
<ellipse fill="#ff7f0e" stroke="#ff7f0e" cx="683.79" cy="-162" rx="96.2987" ry="18"/>
<text text-anchor="middle" x="683.79" y="-157.8" font-family="Times,serif" font-size="14.00">q0 mixer offsets readout</text>
</g>
<!-- q0 pulse amplitude coarse&#45;&gt;q0 mixer offsets readout -->
<g id="edge40" class="edge"><title>q0 pulse amplitude coarse&#45;&gt;q0 mixer offsets readout</title>
<path fill="none" stroke="black" d="M606.72,-216.41C620.18,-207.08 637.16,-195.32 651.75,-185.2"/>
<polygon fill="black" stroke="black" points="653.794,-188.042 660.02,-179.47 649.807,-182.288 653.794,-188.042"/>
</g>
<!-- q0 mixer skewness drive -->
<g id="node32" class="node"><title>q0 mixer skewness drive</title>
<ellipse fill="#ff7f0e" stroke="#ff7f0e" cx="97.786" cy="-162" rx="98" ry="18"/>
<text text-anchor="middle" x="97.786" y="-157.8" font-family="Times,serif" font-size="14.00">q0 mixer skewness drive</text>
</g>
<!-- q0 pulse amplitude coarse&#45;&gt;q0 mixer skewness drive -->
<g id="edge41" class="edge"><title>q0 pulse amplitude coarse&#45;&gt;q0 mixer skewness drive</title>
<path fill="none" stroke="black" d="M504.18,-222.4C427.68,-211.99 308.17,-195.46 204.79,-180 196.27,-178.73 187.38,-177.37 178.52,-175.99"/>
<polygon fill="black" stroke="black" points="178.971,-172.518 168.55,-174.43 177.889,-179.434 178.971,-172.518"/>
</g>
<!-- q0 resonator frequency -->
<g id="node33" class="node"><title>q0 resonator frequency</title>
<ellipse fill="#ff7f0e" stroke="#ff7f0e" cx="793.79" cy="-90" rx="91.7566" ry="18"/>
<text text-anchor="middle" x="793.79" y="-85.8" font-family="Times,serif" font-size="14.00">q0 resonator frequency</text>
</g>
<!-- q0 frequency coarse&#45;&gt;q0 resonator frequency -->
<g id="edge42" class="edge"><title>q0 frequency coarse&#45;&gt;q0 resonator frequency</title>
<path fill="none" stroke="black" d="M353.28,-149.44C363.75,-147.52 374.58,-145.62 384.79,-144 495.26,-126.42 623.23,-110.56 706.19,-100.87"/>
<polygon fill="black" stroke="black" points="706.804,-104.322 716.33,-99.685 705.991,-97.3695 706.804,-104.322"/>
</g>
<!-- q0 resonator frequency&#45;&gt;3 qubit device resonator frequencies coarse -->
<g id="edge45" class="edge"><title>q0 resonator frequency&#45;&gt;3 qubit device resonator frequencies coarse</title>
<path fill="none" stroke="black" d="M873.29,-81.038C993.58,-68.992 1223,-46.018 1366.4,-31.661"/>
<polygon fill="black" stroke="black" points="1366.9,-35.1282 1376.5,-30.642 1366.2,-28.1636 1366.9,-35.1282"/>
</g>
<!-- q0 T2&#45;echo -->
<g id="node34" class="node"><title>q0 T2&#45;echo</title>
<ellipse fill="#ff7f0e" stroke="#ff7f0e" cx="582.79" cy="-306" rx="50.5" ry="18"/>
<text text-anchor="middle" x="582.79" y="-301.8" font-family="Times,serif" font-size="14.00">q0 T2&#45;echo</text>
</g>
<!-- q0 T2&#45;echo&#45;&gt;q0 pulse amplitude coarse -->
<g id="edge43" class="edge"><title>q0 T2&#45;echo&#45;&gt;q0 pulse amplitude coarse</title>
<path fill="none" stroke="black" d="M582.79,-287.7C582.79,-279.98 582.79,-270.71 582.79,-262.11"/>
<polygon fill="black" stroke="black" points="586.29,-262.1 582.79,-252.1 579.29,-262.1 586.29,-262.1"/>
</g>
<!-- q0 T2&#45;star -->
<g id="node35" class="node"><title>q0 T2&#45;star</title>
<ellipse fill="#ff7f0e" stroke="#ff7f0e" cx="697.79" cy="-306" rx="46.5859" ry="18"/>
<text text-anchor="middle" x="697.79" y="-301.8" font-family="Times,serif" font-size="14.00">q0 T2&#45;star</text>
</g>
<!-- q0 T2&#45;star&#45;&gt;q0 pulse amplitude coarse -->
<g id="edge44" class="edge"><title>q0 T2&#45;star&#45;&gt;q0 pulse amplitude coarse</title>
<path fill="none" stroke="black" d="M673.96,-290.5C657.9,-280.72 636.44,-267.66 618.37,-256.66"/>
<polygon fill="black" stroke="black" points="620.172,-253.659 609.81,-251.45 616.532,-259.639 620.172,-253.659"/>
</g>
<!-- q1 T1 -->
<g id="node36" class="node"><title>q1 T1</title>
<ellipse fill="#ff7f0e" stroke="#ff7f0e" cx="1087.8" cy="-306" rx="31" ry="18"/>
<text text-anchor="middle" x="1087.8" y="-301.8" font-family="Times,serif" font-size="14.00">q1 T1</text>
</g>
<!-- q1 T1&#45;&gt;q1 pulse amplitude coarse -->
<g id="edge47" class="edge"><title>q1 T1&#45;&gt;q1 pulse amplitude coarse</title>
<path fill="none" stroke="black" d="M1111.7,-294.37C1117,-292.17 1122.5,-289.93 1127.8,-288 1163,-274.99 1203.1,-262.27 1235.3,-252.55"/>
<polygon fill="black" stroke="black" points="1236.43,-255.864 1245,-249.63 1234.42,-249.161 1236.43,-255.864"/>
</g>
<!-- q1 pulse amplitude coarse&#45;&gt;AWG8 MW&#45;staircase -->
<g id="edge48" class="edge"><title>q1 pulse amplitude coarse&#45;&gt;AWG8 MW&#45;staircase</title>
<path fill="none" stroke="black" d="M1251.5,-217.64C1220.4,-206.88 1178.8,-192.46 1146.1,-181.13"/>
<polygon fill="black" stroke="black" points="1146.89,-177.701 1136.3,-177.73 1144.6,-184.314 1146.89,-177.701"/>
</g>
<!-- q1 frequency coarse -->
<g id="node38" class="node"><title>q1 frequency coarse</title>
<ellipse fill="#ff7f0e" stroke="#ff7f0e" cx="1492.8" cy="-162" rx="81.5" ry="18"/>
<text text-anchor="middle" x="1492.8" y="-157.8" font-family="Times,serif" font-size="14.00">q1 frequency coarse</text>
</g>
<!-- q1 pulse amplitude coarse&#45;&gt;q1 frequency coarse -->
<g id="edge49" class="edge"><title>q1 pulse amplitude coarse&#45;&gt;q1 frequency coarse</title>
<path fill="none" stroke="black" d="M1339,-217.64C1369.4,-206.84 1410.2,-192.36 1442.1,-181.02"/>
<polygon fill="black" stroke="black" points="1443.45,-184.255 1451.7,-177.61 1441.11,-177.659 1443.45,-184.255"/>
</g>
<!-- q1 mixer offsets drive -->
<g id="node39" class="node"><title>q1 mixer offsets drive</title>
<ellipse fill="#ff7f0e" stroke="#ff7f0e" cx="1679.8" cy="-162" rx="88" ry="18"/>
<text text-anchor="middle" x="1679.8" y="-157.8" font-family="Times,serif" font-size="14.00">q1 mixer offsets drive</text>
</g>
<!-- q1 pulse amplitude coarse&#45;&gt;q1 mixer offsets drive -->
<g id="edge50" class="edge"><title>q1 pulse amplitude coarse&#45;&gt;q1 mixer offsets drive</title>
<path fill="none" stroke="black" d="M1364,-220.57C1432.1,-208.15 1536.4,-189.14 1606.3,-176.4"/>
<polygon fill="black" stroke="black" points="1607.19,-179.796 1616.4,-174.56 1605.93,-172.909 1607.19,-179.796"/>
</g>
<!-- q1 mixer offsets readout -->
<g id="node40" class="node"><title>q1 mixer offsets readout</title>
<ellipse fill="#ff7f0e" stroke="#ff7f0e" cx="893.79" cy="-162" rx="96.2987" ry="18"/>
<text text-anchor="middle" x="893.79" y="-157.8" font-family="Times,serif" font-size="14.00">q1 mixer offsets readout</text>
</g>
<!-- q1 pulse amplitude coarse&#45;&gt;q1 mixer offsets readout -->
<g id="edge51" class="edge"><title>q1 pulse amplitude coarse&#45;&gt;q1 mixer offsets readout</title>
<path fill="none" stroke="black" d="M1225.8,-220.81C1154.9,-208.46 1045.5,-189.41 971.81,-176.59"/>
<polygon fill="black" stroke="black" points="972.123,-173.092 961.67,-174.82 970.919,-179.988 972.123,-173.092"/>
</g>
<!-- q1 mixer skewness drive -->
<g id="node41" class="node"><title>q1 mixer skewness drive</title>
<ellipse fill="#ff7f0e" stroke="#ff7f0e" cx="1295.8" cy="-162" rx="98" ry="18"/>
<text text-anchor="middle" x="1295.8" y="-157.8" font-family="Times,serif" font-size="14.00">q1 mixer skewness drive</text>
</g>
<!-- q1 pulse amplitude coarse&#45;&gt;q1 mixer skewness drive -->
<g id="edge52" class="edge"><title>q1 pulse amplitude coarse&#45;&gt;q1 mixer skewness drive</title>
<path fill="none" stroke="black" d="M1295.8,-215.7C1295.8,-207.98 1295.8,-198.71 1295.8,-190.11"/>
<polygon fill="black" stroke="black" points="1299.3,-190.1 1295.8,-180.1 1292.3,-190.1 1299.3,-190.1"/>
</g>
<!-- q1 resonator frequency -->
<g id="node42" class="node"><title>q1 resonator frequency</title>
<ellipse fill="#ff7f0e" stroke="#ff7f0e" cx="1492.8" cy="-90" rx="91.7566" ry="18"/>
<text text-anchor="middle" x="1492.8" y="-85.8" font-family="Times,serif" font-size="14.00">q1 resonator frequency</text>
</g>
<!-- q1 frequency coarse&#45;&gt;q1 resonator frequency -->
<g id="edge53" class="edge"><title>q1 frequency coarse&#45;&gt;q1 resonator frequency</title>
<path fill="none" stroke="black" d="M1492.8,-143.7C1492.8,-135.98 1492.8,-126.71 1492.8,-118.11"/>
<polygon fill="black" stroke="black" points="1496.3,-118.1 1492.8,-108.1 1489.3,-118.1 1496.3,-118.1"/>
</g>
<!-- q1 resonator frequency&#45;&gt;3 qubit device resonator frequencies coarse -->
<g id="edge56" class="edge"><title>q1 resonator frequency&#45;&gt;3 qubit device resonator frequencies coarse</title>
<path fill="none" stroke="black" d="M1492.8,-71.697C1492.8,-63.983 1492.8,-54.712 1492.8,-46.112"/>
<polygon fill="black" stroke="black" points="1496.3,-46.104 1492.8,-36.104 1489.3,-46.104 1496.3,-46.104"/>
</g>
<!-- q1 T2&#45;echo -->
<g id="node43" class="node"><title>q1 T2&#45;echo</title>
<ellipse fill="#ff7f0e" stroke="#ff7f0e" cx="1186.8" cy="-306" rx="50.5" ry="18"/>
<text text-anchor="middle" x="1186.8" y="-301.8" font-family="Times,serif" font-size="14.00">q1 T2&#45;echo</text>
</g>
<!-- q1 T2&#45;echo&#45;&gt;q1 pulse amplitude coarse -->
<g id="edge54" class="edge"><title>q1 T2&#45;echo&#45;&gt;q1 pulse amplitude coarse</title>
<path fill="none" stroke="black" d="M1210.2,-289.98C1225.2,-280.34 1245,-267.64 1261.7,-256.88"/>
<polygon fill="black" stroke="black" points="1263.65,-259.788 1270.2,-251.46 1259.89,-253.885 1263.65,-259.788"/>
</g>
<!-- q1 T2&#45;star -->
<g id="node44" class="node"><title>q1 T2&#45;star</title>
<ellipse fill="#ff7f0e" stroke="#ff7f0e" cx="1301.8" cy="-306" rx="46.5859" ry="18"/>
<text text-anchor="middle" x="1301.8" y="-301.8" font-family="Times,serif" font-size="14.00">q1 T2&#45;star</text>
</g>
<!-- q1 T2&#45;star&#45;&gt;q1 pulse amplitude coarse -->
<g id="edge55" class="edge"><title>q1 T2&#45;star&#45;&gt;q1 pulse amplitude coarse</title>
<path fill="none" stroke="black" d="M1300.3,-287.7C1299.6,-279.98 1298.8,-270.71 1298.1,-262.11"/>
<polygon fill="black" stroke="black" points="1301.59,-261.789 1297.3,-252.1 1294.61,-262.347 1301.59,-261.789"/>
</g>
<!-- q2 T1 -->
<g id="node45" class="node"><title>q2 T1</title>
<ellipse fill="#ff7f0e" stroke="#ff7f0e" cx="1826.8" cy="-306" rx="31" ry="18"/>
<text text-anchor="middle" x="1826.8" y="-301.8" font-family="Times,serif" font-size="14.00">q2 T1</text>
</g>
<!-- q2 T1&#45;&gt;q2 pulse amplitude coarse -->
<g id="edge58" class="edge"><title>q2 T1&#45;&gt;q2 pulse amplitude coarse</title>
<path fill="none" stroke="black" d="M1850.7,-294.33C1856,-292.13 1861.5,-289.91 1866.8,-288 1903.4,-274.69 1945.1,-261.9 1978.5,-252.23"/>
<polygon fill="black" stroke="black" points="1979.55,-255.57 1988.2,-249.45 1977.62,-248.841 1979.55,-255.57"/>
</g>
<!-- q2 pulse amplitude coarse&#45;&gt;AWG8 MW&#45;staircase -->
<g id="edge59" class="edge"><title>q2 pulse amplitude coarse&#45;&gt;AWG8 MW&#45;staircase</title>
<path fill="none" stroke="black" d="M1940.4,-230.49C1780.8,-225.66 1459.3,-212.51 1188.8,-180 1180.8,-179.04 1172.5,-177.84 1164.2,-176.53"/>
<polygon fill="black" stroke="black" points="1164.64,-173.055 1154.2,-174.88 1163.5,-179.961 1164.64,-173.055"/>
</g>
<!-- q2 frequency coarse -->
<g id="node47" class="node"><title>q2 frequency coarse</title>
<ellipse fill="#ff7f0e" stroke="#ff7f0e" cx="2080.8" cy="-162" rx="81.5" ry="18"/>
<text text-anchor="middle" x="2080.8" y="-157.8" font-family="Times,serif" font-size="14.00">q2 frequency coarse</text>
</g>
<!-- q2 pulse amplitude coarse&#45;&gt;q2 frequency coarse -->
<g id="edge60" class="edge"><title>q2 pulse amplitude coarse&#45;&gt;q2 frequency coarse</title>
<path fill="none" stroke="black" d="M2050.5,-216.05C2055.1,-208.01 2060.7,-198.2 2065.8,-189.23"/>
<polygon fill="black" stroke="black" points="2068.99,-190.701 2070.9,-180.28 2062.91,-187.236 2068.99,-190.701"/>
</g>
<!-- q2 mixer offsets drive -->
<g id="node48" class="node"><title>q2 mixer offsets drive</title>
<ellipse fill="#ff7f0e" stroke="#ff7f0e" cx="2267.8" cy="-162" rx="88" ry="18"/>
<text text-anchor="middle" x="2267.8" y="-157.8" font-family="Times,serif" font-size="14.00">q2 mixer offsets drive</text>
</g>
<!-- q2 pulse amplitude coarse&#45;&gt;q2 mixer offsets drive -->
<g id="edge61" class="edge"><title>q2 pulse amplitude coarse&#45;&gt;q2 mixer offsets drive</title>
<path fill="none" stroke="black" d="M2089.2,-218.07C2125.1,-207.01 2174,-191.92 2211.6,-180.33"/>
<polygon fill="black" stroke="black" points="2212.87,-183.6 2221.4,-177.31 2210.81,-176.91 2212.87,-183.6"/>
</g>
<!-- q2 mixer offsets readout -->
<g id="node49" class="node"><title>q2 mixer offsets readout</title>
<ellipse fill="#ff7f0e" stroke="#ff7f0e" cx="2469.8" cy="-162" rx="96.2987" ry="18"/>
<text text-anchor="middle" x="2469.8" y="-157.8" font-family="Times,serif" font-size="14.00">q2 mixer offsets readout</text>
</g>
<!-- q2 pulse amplitude coarse&#45;&gt;q2 mixer offsets readout -->
<g id="edge62" class="edge"><title>q2 pulse amplitude coarse&#45;&gt;q2 mixer offsets readout</title>
<path fill="none" stroke="black" d="M2113.1,-221.2C2189.7,-208.71 2310.3,-189.02 2389.7,-176.06"/>
<polygon fill="black" stroke="black" points="2390.39,-179.494 2399.7,-174.44 2389.27,-172.584 2390.39,-179.494"/>
</g>
<!-- q2 mixer skewness drive -->
<g id="node50" class="node"><title>q2 mixer skewness drive</title>
<ellipse fill="#ff7f0e" stroke="#ff7f0e" cx="1883.8" cy="-162" rx="98" ry="18"/>
<text text-anchor="middle" x="1883.8" y="-157.8" font-family="Times,serif" font-size="14.00">q2 mixer skewness drive</text>
</g>
<!-- q2 pulse amplitude coarse&#45;&gt;q2 mixer skewness drive -->
<g id="edge63" class="edge"><title>q2 pulse amplitude coarse&#45;&gt;q2 mixer skewness drive</title>
<path fill="none" stroke="black" d="M2005.2,-217.12C1982.5,-207 1952.9,-193.82 1928.6,-182.99"/>
<polygon fill="black" stroke="black" points="1929.86,-179.718 1919.3,-178.82 1926.99,-186.105 1929.86,-179.718"/>
</g>
<!-- q2 resonator frequency -->
<g id="node51" class="node"><title>q2 resonator frequency</title>
<ellipse fill="#ff7f0e" stroke="#ff7f0e" cx="1886.8" cy="-90" rx="91.7566" ry="18"/>
<text text-anchor="middle" x="1886.8" y="-85.8" font-family="Times,serif" font-size="14.00">q2 resonator frequency</text>
</g>
<!-- q2 frequency coarse&#45;&gt;q2 resonator frequency -->
<g id="edge64" class="edge"><title>q2 frequency coarse&#45;&gt;q2 resonator frequency</title>
<path fill="none" stroke="black" d="M2040.1,-146.33C2010.5,-135.64 1970.2,-121.1 1938.3,-109.6"/>
<polygon fill="black" stroke="black" points="1939.29,-106.238 1928.7,-106.14 1936.92,-112.823 1939.29,-106.238"/>
</g>
<!-- q2 resonator frequency&#45;&gt;3 qubit device resonator frequencies coarse -->
<g id="edge67" class="edge"><title>q2 resonator frequency&#45;&gt;3 qubit device resonator frequencies coarse</title>
<path fill="none" stroke="black" d="M1821.3,-77.362C1756.7,-65.889 1657.4,-48.252 1584.9,-35.368"/>
<polygon fill="black" stroke="black" points="1585.36,-31.8948 1574.9,-33.583 1584.13,-38.7858 1585.36,-31.8948"/>
</g>
<!-- q2 T2&#45;echo -->
<g id="node52" class="node"><title>q2 T2&#45;echo</title>
<ellipse fill="#ff7f0e" stroke="#ff7f0e" cx="1925.8" cy="-306" rx="50.5" ry="18"/>
<text text-anchor="middle" x="1925.8" y="-301.8" font-family="Times,serif" font-size="14.00">q2 T2&#45;echo</text>
</g>
<!-- q2 T2&#45;echo&#45;&gt;q2 pulse amplitude coarse -->
<g id="edge65" class="edge"><title>q2 T2&#45;echo&#45;&gt;q2 pulse amplitude coarse</title>
<path fill="none" stroke="black" d="M1950.2,-290.15C1966,-280.52 1986.9,-267.79 2004.7,-256.99"/>
<polygon fill="black" stroke="black" points="2006.9,-259.747 2013.6,-251.54 2003.24,-253.777 2006.9,-259.747"/>
</g>
<!-- q2 T2&#45;star -->
<g id="node53" class="node"><title>q2 T2&#45;star</title>
<ellipse fill="#ff7f0e" stroke="#ff7f0e" cx="2040.8" cy="-306" rx="46.5859" ry="18"/>
<text text-anchor="middle" x="2040.8" y="-301.8" font-family="Times,serif" font-size="14.00">q2 T2&#45;star</text>
</g>
<!-- q2 T2&#45;star&#45;&gt;q2 pulse amplitude coarse -->
<g id="edge66" class="edge"><title>q2 T2&#45;star&#45;&gt;q2 pulse amplitude coarse</title>
<path fill="none" stroke="black" d="M2040.8,-287.7C2040.8,-279.98 2040.8,-270.71 2040.8,-262.11"/>
<polygon fill="black" stroke="black" points="2044.3,-262.1 2040.8,-252.1 2037.3,-262.1 2044.3,-262.1"/>
</g>
</g>
</svg>
