<?xml version="1.0" encoding="UTF-8" standalone="no"?>
<!DOCTYPE svg PUBLIC "-//W3C//DTD SVG 1.1//EN"
 "http://www.w3.org/Graphics/SVG/1.1/DTD/svg11.dtd">
<!-- Generated by graphviz version 2.38.0 (20140413.2041)
 -->
<!-- Title: test graph Pages: 1 -->
<svg width="162pt" height="188pt"
 viewBox="0.00 0.00 162.00 188.00" xmlns="http://www.w3.org/2000/svg" xmlns:xlink="http://www.w3.org/1999/xlink">
<g id="graph0" class="graph" transform="scale(1 1) rotate(0) translate(4 184)">
<title>test graph</title>
<polygon fill="white" stroke="none" points="-4,4 -4,-184 158,-184 158,4 -4,4"/>
<!-- A -->
<g id="node1" class="node"><title>A</title>
<ellipse fill="#ff7f0e" stroke="#ff7f0e" cx="55" cy="-18" rx="27" ry="18"/>
<text text-anchor="middle" x="55" y="-13.8" font-family="Times,serif" font-size="14.00">A</text>
</g>
<!-- B -->
<g id="node2" class="node"><title>B</title>
<ellipse fill="#2ca02c" stroke="#2ca02c" cx="55" cy="-90" rx="27" ry="18"/>
<text text-anchor="middle" x="55" y="-85.8" font-family="Times,serif" font-size="14.00">B</text>
</g>
<!-- B&#45;&gt;A -->
<g id="edge1" class="edge"><title>B&#45;&gt;A</title>
<path fill="none" stroke="black" d="M55,-71.6966C55,-63.9827 55,-54.7125 55,-46.1124"/>
<polygon fill="black" stroke="black" points="58.5001,-46.1043 55,-36.1043 51.5001,-46.1044 58.5001,-46.1043"/>
</g>
<!-- C -->
<g id="node3" class="node"><title>C</title>
<ellipse fill="#2ca02c" stroke="#2ca02c" cx="27" cy="-162" rx="27" ry="18"/>
<text text-anchor="middle" x="27" y="-157.8" font-family="Times,serif" font-size="14.00">C</text>
</g>
<!-- C&#45;&gt;A -->
<g id="edge2" class="edge"><title>C&#45;&gt;A</title>
<path fill="none" stroke="black" d="M21.7456,-144.201C16.9083,-126.005 11.5218,-96.3186 19,-72 22.2858,-61.3149 28.5399,-50.851 34.9254,-42.0814"/>
<polygon fill="black" stroke="black" points="37.8844,-43.9774 41.2496,-33.9312 32.354,-39.6861 37.8844,-43.9774"/>
</g>
<!-- C&#45;&gt;B -->
<g id="edge3" class="edge"><title>C&#45;&gt;B</title>
<path fill="none" stroke="black" d="M33.6356,-144.411C36.9134,-136.216 40.9442,-126.14 44.6181,-116.955"/>
<polygon fill="black" stroke="black" points="47.9477,-118.055 48.412,-107.47 41.4484,-115.455 47.9477,-118.055"/>
</g>
<!-- D -->
<g id="node4" class="node"><title>D</title>
<ellipse fill="#ff7f0e" stroke="#ff7f0e" cx="127" cy="-90" rx="27" ry="18"/>
<text text-anchor="middle" x="127" y="-85.8" font-family="Times,serif" font-size="14.00">D</text>
</g>
<!-- D&#45;&gt;A -->
<g id="edge4" class="edge"><title>D&#45;&gt;A</title>
<path fill="none" stroke="black" d="M112.43,-74.8345C102.25,-64.9376 88.4761,-51.5462 76.9694,-40.3591"/>
<polygon fill="black" stroke="black" points="79.4055,-37.8461 69.7957,-33.3847 74.5259,-42.865 79.4055,-37.8461"/>
</g>
<!-- E -->
<g id="node5" class="node"><title>E</title>
<ellipse fill="#ff7f0e" stroke="#ff7f0e" cx="127" cy="-162" rx="27" ry="18"/>
<text text-anchor="middle" x="127" y="-157.8" font-family="Times,serif" font-size="14.00">E</text>
</g>
<!-- E&#45;&gt;D -->
<g id="edge5" class="edge"><title>E&#45;&gt;D</title>
<path fill="none" stroke="black" d="M127,-143.697C127,-135.983 127,-126.712 127,-118.112"/>
<polygon fill="black" stroke="black" points="130.5,-118.104 127,-108.104 123.5,-118.104 130.5,-118.104"/>
</g>
</g>
</svg>
